<mxfile host="app.diagrams.net" modified="2024-01-13T11:43:42.449Z" agent="Mozilla/5.0 (Macintosh; Intel Mac OS X 10_15_7) AppleWebKit/537.36 (KHTML, like Gecko) Chrome/120.0.0.0 Safari/537.36" etag="ATt-UWpJneMdH_bwZMz3" version="22.1.18" type="device">
  <diagram name="Page-1" id="W-j8YvVLtQfb7rMT03K6">
    <mxGraphModel dx="1853" dy="685" grid="1" gridSize="10" guides="1" tooltips="1" connect="1" arrows="1" fold="1" page="1" pageScale="1" pageWidth="827" pageHeight="1169" math="0" shadow="0">
      <root>
        <mxCell id="0" />
        <mxCell id="1" parent="0" />
        <mxCell id="vZsCT-HpAoaQenZftZ2v-1" value="Match" style="swimlane;fontStyle=0;childLayout=stackLayout;horizontal=1;startSize=26;fillColor=none;horizontalStack=0;resizeParent=1;resizeParentMax=0;resizeLast=0;collapsible=1;marginBottom=0;whiteSpace=wrap;html=1;" vertex="1" parent="1">
          <mxGeometry x="-30" y="60" width="140" height="160" as="geometry" />
        </mxCell>
        <mxCell id="vZsCT-HpAoaQenZftZ2v-2" value="matchId&lt;br&gt;team A&lt;br style=&quot;border-color: var(--border-color);&quot;&gt;team A&lt;br style=&quot;border-color: var(--border-color);&quot;&gt;innings1&lt;br style=&quot;border-color: var(--border-color);&quot;&gt;innings2&lt;br style=&quot;border-color: var(--border-color);&quot;&gt;MatchTypeInterface&lt;br style=&quot;border-color: var(--border-color);&quot;&gt;Tosswinner" style="text;strokeColor=none;fillColor=none;align=left;verticalAlign=top;spacingLeft=4;spacingRight=4;overflow=hidden;rotatable=0;points=[[0,0.5],[1,0.5]];portConstraint=eastwest;whiteSpace=wrap;html=1;" vertex="1" parent="vZsCT-HpAoaQenZftZ2v-1">
          <mxGeometry y="26" width="140" height="134" as="geometry" />
        </mxCell>
        <mxCell id="vZsCT-HpAoaQenZftZ2v-45" value="" style="edgeStyle=orthogonalEdgeStyle;rounded=0;orthogonalLoop=1;jettySize=auto;html=1;" edge="1" parent="1" source="vZsCT-HpAoaQenZftZ2v-38" target="vZsCT-HpAoaQenZftZ2v-41">
          <mxGeometry relative="1" as="geometry" />
        </mxCell>
        <mxCell id="vZsCT-HpAoaQenZftZ2v-38" value="&lt;p style=&quot;margin:0px;margin-top:4px;text-align:center;&quot;&gt;&lt;b&gt;Team&lt;/b&gt;&lt;/p&gt;&lt;hr size=&quot;1&quot;&gt;&lt;p style=&quot;margin:0px;margin-left:4px;&quot;&gt;- teamName&lt;/p&gt;&lt;p style=&quot;margin:0px;margin-left:4px;&quot;&gt;- List&amp;lt;Players&amp;gt;&lt;/p&gt;&lt;p style=&quot;margin:0px;margin-left:4px;&quot;&gt;- Queue&amp;lt;players&amp;gt;&lt;/p&gt;&lt;p style=&quot;margin:0px;margin-left:4px;&quot;&gt;PlayerBatting: Player&lt;/p&gt;&lt;p style=&quot;margin:0px;margin-left:4px;&quot;&gt;PlayerBowling: Player&lt;/p&gt;&lt;br&gt;&lt;hr size=&quot;1&quot;&gt;&lt;p style=&quot;margin:0px;margin-left:4px;&quot;&gt;+ method(): Type&lt;/p&gt;" style="verticalAlign=top;align=left;overflow=fill;fontSize=12;fontFamily=Helvetica;html=1;whiteSpace=wrap;" vertex="1" parent="1">
          <mxGeometry x="180" y="60" width="160" height="160" as="geometry" />
        </mxCell>
        <mxCell id="vZsCT-HpAoaQenZftZ2v-39" style="edgeStyle=orthogonalEdgeStyle;rounded=0;orthogonalLoop=1;jettySize=auto;html=1;entryX=-0.037;entryY=0.581;entryDx=0;entryDy=0;entryPerimeter=0;" edge="1" parent="1" source="vZsCT-HpAoaQenZftZ2v-2" target="vZsCT-HpAoaQenZftZ2v-38">
          <mxGeometry relative="1" as="geometry" />
        </mxCell>
        <mxCell id="vZsCT-HpAoaQenZftZ2v-57" style="edgeStyle=orthogonalEdgeStyle;rounded=0;orthogonalLoop=1;jettySize=auto;html=1;entryX=0.5;entryY=0;entryDx=0;entryDy=0;" edge="1" parent="1" source="vZsCT-HpAoaQenZftZ2v-40" target="vZsCT-HpAoaQenZftZ2v-52">
          <mxGeometry relative="1" as="geometry" />
        </mxCell>
        <mxCell id="vZsCT-HpAoaQenZftZ2v-40" value="Player" style="swimlane;fontStyle=1;align=center;verticalAlign=top;childLayout=stackLayout;horizontal=1;startSize=26;horizontalStack=0;resizeParent=1;resizeParentMax=0;resizeLast=0;collapsible=1;marginBottom=0;whiteSpace=wrap;html=1;" vertex="1" parent="1">
          <mxGeometry x="414" y="80" width="180" height="124" as="geometry" />
        </mxCell>
        <mxCell id="vZsCT-HpAoaQenZftZ2v-41" value="playerName&lt;br&gt;playerTypeEnum&lt;br&gt;battingScoreController&lt;br&gt;bowlingScoreController" style="text;strokeColor=none;fillColor=none;align=left;verticalAlign=top;spacingLeft=4;spacingRight=4;overflow=hidden;rotatable=0;points=[[0,0.5],[1,0.5]];portConstraint=eastwest;whiteSpace=wrap;html=1;" vertex="1" parent="vZsCT-HpAoaQenZftZ2v-40">
          <mxGeometry y="26" width="180" height="64" as="geometry" />
        </mxCell>
        <mxCell id="vZsCT-HpAoaQenZftZ2v-42" value="" style="line;strokeWidth=1;fillColor=none;align=left;verticalAlign=middle;spacingTop=-1;spacingLeft=3;spacingRight=3;rotatable=0;labelPosition=right;points=[];portConstraint=eastwest;strokeColor=inherit;" vertex="1" parent="vZsCT-HpAoaQenZftZ2v-40">
          <mxGeometry y="90" width="180" height="8" as="geometry" />
        </mxCell>
        <mxCell id="vZsCT-HpAoaQenZftZ2v-43" value="+ method(type): type" style="text;strokeColor=none;fillColor=none;align=left;verticalAlign=top;spacingLeft=4;spacingRight=4;overflow=hidden;rotatable=0;points=[[0,0.5],[1,0.5]];portConstraint=eastwest;whiteSpace=wrap;html=1;" vertex="1" parent="vZsCT-HpAoaQenZftZ2v-40">
          <mxGeometry y="98" width="180" height="26" as="geometry" />
        </mxCell>
        <mxCell id="vZsCT-HpAoaQenZftZ2v-46" value="BattingScorecardController" style="swimlane;fontStyle=1;align=center;verticalAlign=top;childLayout=stackLayout;horizontal=1;startSize=26;horizontalStack=0;resizeParent=1;resizeParentMax=0;resizeLast=0;collapsible=1;marginBottom=0;whiteSpace=wrap;html=1;" vertex="1" parent="1">
          <mxGeometry x="650" y="240" width="160" height="134" as="geometry" />
        </mxCell>
        <mxCell id="vZsCT-HpAoaQenZftZ2v-47" value="totalruns&lt;br&gt;totalballsplayed&lt;br&gt;total4s&lt;br&gt;total6s" style="text;strokeColor=none;fillColor=none;align=left;verticalAlign=top;spacingLeft=4;spacingRight=4;overflow=hidden;rotatable=0;points=[[0,0.5],[1,0.5]];portConstraint=eastwest;whiteSpace=wrap;html=1;" vertex="1" parent="vZsCT-HpAoaQenZftZ2v-46">
          <mxGeometry y="26" width="160" height="74" as="geometry" />
        </mxCell>
        <mxCell id="vZsCT-HpAoaQenZftZ2v-48" value="" style="line;strokeWidth=1;fillColor=none;align=left;verticalAlign=middle;spacingTop=-1;spacingLeft=3;spacingRight=3;rotatable=0;labelPosition=right;points=[];portConstraint=eastwest;strokeColor=inherit;" vertex="1" parent="vZsCT-HpAoaQenZftZ2v-46">
          <mxGeometry y="100" width="160" height="8" as="geometry" />
        </mxCell>
        <mxCell id="vZsCT-HpAoaQenZftZ2v-49" value="+ method(type): type" style="text;strokeColor=none;fillColor=none;align=left;verticalAlign=top;spacingLeft=4;spacingRight=4;overflow=hidden;rotatable=0;points=[[0,0.5],[1,0.5]];portConstraint=eastwest;whiteSpace=wrap;html=1;" vertex="1" parent="vZsCT-HpAoaQenZftZ2v-46">
          <mxGeometry y="108" width="160" height="26" as="geometry" />
        </mxCell>
        <mxCell id="vZsCT-HpAoaQenZftZ2v-52" value="BowlingScorecardController" style="swimlane;fontStyle=1;align=center;verticalAlign=top;childLayout=stackLayout;horizontal=1;startSize=26;horizontalStack=0;resizeParent=1;resizeParentMax=0;resizeLast=0;collapsible=1;marginBottom=0;whiteSpace=wrap;html=1;" vertex="1" parent="1">
          <mxGeometry x="650" y="70" width="160" height="134" as="geometry" />
        </mxCell>
        <mxCell id="vZsCT-HpAoaQenZftZ2v-53" value="totalover&lt;br&gt;totalbolws&lt;br&gt;totalMaiden&lt;br&gt;total3W" style="text;strokeColor=none;fillColor=none;align=left;verticalAlign=top;spacingLeft=4;spacingRight=4;overflow=hidden;rotatable=0;points=[[0,0.5],[1,0.5]];portConstraint=eastwest;whiteSpace=wrap;html=1;" vertex="1" parent="vZsCT-HpAoaQenZftZ2v-52">
          <mxGeometry y="26" width="160" height="74" as="geometry" />
        </mxCell>
        <mxCell id="vZsCT-HpAoaQenZftZ2v-54" value="" style="line;strokeWidth=1;fillColor=none;align=left;verticalAlign=middle;spacingTop=-1;spacingLeft=3;spacingRight=3;rotatable=0;labelPosition=right;points=[];portConstraint=eastwest;strokeColor=inherit;" vertex="1" parent="vZsCT-HpAoaQenZftZ2v-52">
          <mxGeometry y="100" width="160" height="8" as="geometry" />
        </mxCell>
        <mxCell id="vZsCT-HpAoaQenZftZ2v-55" value="+ method(type): type" style="text;strokeColor=none;fillColor=none;align=left;verticalAlign=top;spacingLeft=4;spacingRight=4;overflow=hidden;rotatable=0;points=[[0,0.5],[1,0.5]];portConstraint=eastwest;whiteSpace=wrap;html=1;" vertex="1" parent="vZsCT-HpAoaQenZftZ2v-52">
          <mxGeometry y="108" width="160" height="26" as="geometry" />
        </mxCell>
        <mxCell id="vZsCT-HpAoaQenZftZ2v-58" style="edgeStyle=orthogonalEdgeStyle;rounded=0;orthogonalLoop=1;jettySize=auto;html=1;entryX=0;entryY=0.595;entryDx=0;entryDy=0;entryPerimeter=0;" edge="1" parent="1" source="vZsCT-HpAoaQenZftZ2v-41" target="vZsCT-HpAoaQenZftZ2v-47">
          <mxGeometry relative="1" as="geometry" />
        </mxCell>
        <mxCell id="vZsCT-HpAoaQenZftZ2v-59" value="Innings" style="swimlane;fontStyle=1;align=center;verticalAlign=top;childLayout=stackLayout;horizontal=1;startSize=26;horizontalStack=0;resizeParent=1;resizeParentMax=0;resizeLast=0;collapsible=1;marginBottom=0;whiteSpace=wrap;html=1;" vertex="1" parent="1">
          <mxGeometry x="-40" y="302" width="160" height="154" as="geometry" />
        </mxCell>
        <mxCell id="vZsCT-HpAoaQenZftZ2v-60" value="battingTeam&lt;br&gt;bowlingTeam&lt;br&gt;oversDetail :Over&lt;br&gt;BattingController&lt;br&gt;BowlingController" style="text;strokeColor=none;fillColor=none;align=left;verticalAlign=top;spacingLeft=4;spacingRight=4;overflow=hidden;rotatable=0;points=[[0,0.5],[1,0.5]];portConstraint=eastwest;whiteSpace=wrap;html=1;" vertex="1" parent="vZsCT-HpAoaQenZftZ2v-59">
          <mxGeometry y="26" width="160" height="94" as="geometry" />
        </mxCell>
        <mxCell id="vZsCT-HpAoaQenZftZ2v-61" value="" style="line;strokeWidth=1;fillColor=none;align=left;verticalAlign=middle;spacingTop=-1;spacingLeft=3;spacingRight=3;rotatable=0;labelPosition=right;points=[];portConstraint=eastwest;strokeColor=inherit;" vertex="1" parent="vZsCT-HpAoaQenZftZ2v-59">
          <mxGeometry y="120" width="160" height="8" as="geometry" />
        </mxCell>
        <mxCell id="vZsCT-HpAoaQenZftZ2v-62" value="+ startInnings()" style="text;strokeColor=none;fillColor=none;align=left;verticalAlign=top;spacingLeft=4;spacingRight=4;overflow=hidden;rotatable=0;points=[[0,0.5],[1,0.5]];portConstraint=eastwest;whiteSpace=wrap;html=1;" vertex="1" parent="vZsCT-HpAoaQenZftZ2v-59">
          <mxGeometry y="128" width="160" height="26" as="geometry" />
        </mxCell>
        <mxCell id="vZsCT-HpAoaQenZftZ2v-64" value="1" style="endArrow=open;html=1;endSize=12;startArrow=diamondThin;startSize=14;startFill=1;edgeStyle=orthogonalEdgeStyle;align=left;verticalAlign=bottom;rounded=0;entryX=0.443;entryY=1.03;entryDx=0;entryDy=0;entryPerimeter=0;exitX=0.5;exitY=0;exitDx=0;exitDy=0;" edge="1" parent="1" source="vZsCT-HpAoaQenZftZ2v-59" target="vZsCT-HpAoaQenZftZ2v-2">
          <mxGeometry x="-1" y="3" relative="1" as="geometry">
            <mxPoint x="490" y="270" as="sourcePoint" />
            <mxPoint x="490" y="340" as="targetPoint" />
            <Array as="points">
              <mxPoint x="40" y="224" />
            </Array>
          </mxGeometry>
        </mxCell>
        <mxCell id="vZsCT-HpAoaQenZftZ2v-65" value="Over" style="swimlane;fontStyle=1;align=center;verticalAlign=top;childLayout=stackLayout;horizontal=1;startSize=26;horizontalStack=0;resizeParent=1;resizeParentMax=0;resizeLast=0;collapsible=1;marginBottom=0;whiteSpace=wrap;html=1;" vertex="1" parent="1">
          <mxGeometry x="190" y="336" width="160" height="104" as="geometry" />
        </mxCell>
        <mxCell id="vZsCT-HpAoaQenZftZ2v-66" value="overNumber&lt;br&gt;List&amp;lt;Balls&amp;gt; balls" style="text;strokeColor=none;fillColor=none;align=left;verticalAlign=top;spacingLeft=4;spacingRight=4;overflow=hidden;rotatable=0;points=[[0,0.5],[1,0.5]];portConstraint=eastwest;whiteSpace=wrap;html=1;" vertex="1" parent="vZsCT-HpAoaQenZftZ2v-65">
          <mxGeometry y="26" width="160" height="44" as="geometry" />
        </mxCell>
        <mxCell id="vZsCT-HpAoaQenZftZ2v-67" value="" style="line;strokeWidth=1;fillColor=none;align=left;verticalAlign=middle;spacingTop=-1;spacingLeft=3;spacingRight=3;rotatable=0;labelPosition=right;points=[];portConstraint=eastwest;strokeColor=inherit;" vertex="1" parent="vZsCT-HpAoaQenZftZ2v-65">
          <mxGeometry y="70" width="160" height="8" as="geometry" />
        </mxCell>
        <mxCell id="vZsCT-HpAoaQenZftZ2v-68" value="+ method(type): type" style="text;strokeColor=none;fillColor=none;align=left;verticalAlign=top;spacingLeft=4;spacingRight=4;overflow=hidden;rotatable=0;points=[[0,0.5],[1,0.5]];portConstraint=eastwest;whiteSpace=wrap;html=1;" vertex="1" parent="vZsCT-HpAoaQenZftZ2v-65">
          <mxGeometry y="78" width="160" height="26" as="geometry" />
        </mxCell>
        <mxCell id="vZsCT-HpAoaQenZftZ2v-69" value="Balls" style="swimlane;fontStyle=1;align=center;verticalAlign=top;childLayout=stackLayout;horizontal=1;startSize=26;horizontalStack=0;resizeParent=1;resizeParentMax=0;resizeLast=0;collapsible=1;marginBottom=0;whiteSpace=wrap;html=1;" vertex="1" parent="1">
          <mxGeometry x="390" y="345" width="160" height="200" as="geometry" />
        </mxCell>
        <mxCell id="vZsCT-HpAoaQenZftZ2v-70" value="ballnumber&lt;br&gt;balltyoe&lt;br&gt;playedBy&lt;br&gt;bowledBy&lt;br&gt;runtypeEnum&lt;br&gt;List&amp;lt;ScorecardObserver&amp;gt;" style="text;strokeColor=none;fillColor=none;align=left;verticalAlign=top;spacingLeft=4;spacingRight=4;overflow=hidden;rotatable=0;points=[[0,0.5],[1,0.5]];portConstraint=eastwest;whiteSpace=wrap;html=1;" vertex="1" parent="vZsCT-HpAoaQenZftZ2v-69">
          <mxGeometry y="26" width="160" height="124" as="geometry" />
        </mxCell>
        <mxCell id="vZsCT-HpAoaQenZftZ2v-71" value="" style="line;strokeWidth=1;fillColor=none;align=left;verticalAlign=middle;spacingTop=-1;spacingLeft=3;spacingRight=3;rotatable=0;labelPosition=right;points=[];portConstraint=eastwest;strokeColor=inherit;" vertex="1" parent="vZsCT-HpAoaQenZftZ2v-69">
          <mxGeometry y="150" width="160" height="8" as="geometry" />
        </mxCell>
        <mxCell id="vZsCT-HpAoaQenZftZ2v-72" value="startBowl()&lt;br&gt;notifyAll()" style="text;strokeColor=none;fillColor=none;align=left;verticalAlign=top;spacingLeft=4;spacingRight=4;overflow=hidden;rotatable=0;points=[[0,0.5],[1,0.5]];portConstraint=eastwest;whiteSpace=wrap;html=1;" vertex="1" parent="vZsCT-HpAoaQenZftZ2v-69">
          <mxGeometry y="158" width="160" height="42" as="geometry" />
        </mxCell>
        <mxCell id="vZsCT-HpAoaQenZftZ2v-73" value="" style="edgeStyle=orthogonalEdgeStyle;rounded=0;orthogonalLoop=1;jettySize=auto;html=1;" edge="1" parent="1" source="vZsCT-HpAoaQenZftZ2v-60" target="vZsCT-HpAoaQenZftZ2v-68">
          <mxGeometry relative="1" as="geometry" />
        </mxCell>
        <mxCell id="vZsCT-HpAoaQenZftZ2v-74" value="" style="edgeStyle=orthogonalEdgeStyle;rounded=0;orthogonalLoop=1;jettySize=auto;html=1;" edge="1" parent="1" source="vZsCT-HpAoaQenZftZ2v-66" target="vZsCT-HpAoaQenZftZ2v-70">
          <mxGeometry relative="1" as="geometry" />
        </mxCell>
        <mxCell id="vZsCT-HpAoaQenZftZ2v-84" style="edgeStyle=orthogonalEdgeStyle;rounded=0;orthogonalLoop=1;jettySize=auto;html=1;entryX=0.5;entryY=0;entryDx=0;entryDy=0;" edge="1" parent="1" source="vZsCT-HpAoaQenZftZ2v-75" target="vZsCT-HpAoaQenZftZ2v-76">
          <mxGeometry relative="1" as="geometry" />
        </mxCell>
        <mxCell id="vZsCT-HpAoaQenZftZ2v-75" value="&lt;p style=&quot;margin:0px;margin-top:4px;text-align:center;&quot;&gt;&lt;i&gt;&amp;lt;&amp;lt;Interface&amp;gt;&amp;gt;&lt;/i&gt;&lt;br&gt;&lt;b&gt;ScoreCardObserver&lt;/b&gt;&lt;/p&gt;&lt;hr size=&quot;1&quot;&gt;&lt;p style=&quot;margin:0px;margin-left:4px;&quot;&gt;&lt;span style=&quot;background-color: initial;&quot;&gt;+ void update()&lt;/span&gt;&lt;/p&gt;" style="verticalAlign=top;align=left;overflow=fill;fontSize=12;fontFamily=Helvetica;html=1;whiteSpace=wrap;" vertex="1" parent="1">
          <mxGeometry x="610" y="430" width="190" height="140" as="geometry" />
        </mxCell>
        <mxCell id="vZsCT-HpAoaQenZftZ2v-76" value="BallScoreUpdater" style="swimlane;fontStyle=1;align=center;verticalAlign=top;childLayout=stackLayout;horizontal=1;startSize=26;horizontalStack=0;resizeParent=1;resizeParentMax=0;resizeLast=0;collapsible=1;marginBottom=0;whiteSpace=wrap;html=1;" vertex="1" parent="1">
          <mxGeometry x="480" y="610" width="160" height="60" as="geometry" />
        </mxCell>
        <mxCell id="vZsCT-HpAoaQenZftZ2v-78" value="" style="line;strokeWidth=1;fillColor=none;align=left;verticalAlign=middle;spacingTop=-1;spacingLeft=3;spacingRight=3;rotatable=0;labelPosition=right;points=[];portConstraint=eastwest;strokeColor=inherit;" vertex="1" parent="vZsCT-HpAoaQenZftZ2v-76">
          <mxGeometry y="26" width="160" height="8" as="geometry" />
        </mxCell>
        <mxCell id="vZsCT-HpAoaQenZftZ2v-79" value="update(balldetails)" style="text;strokeColor=none;fillColor=none;align=left;verticalAlign=top;spacingLeft=4;spacingRight=4;overflow=hidden;rotatable=0;points=[[0,0.5],[1,0.5]];portConstraint=eastwest;whiteSpace=wrap;html=1;" vertex="1" parent="vZsCT-HpAoaQenZftZ2v-76">
          <mxGeometry y="34" width="160" height="26" as="geometry" />
        </mxCell>
        <mxCell id="vZsCT-HpAoaQenZftZ2v-80" value="BatScoreCardUpdater" style="swimlane;fontStyle=1;align=center;verticalAlign=top;childLayout=stackLayout;horizontal=1;startSize=26;horizontalStack=0;resizeParent=1;resizeParentMax=0;resizeLast=0;collapsible=1;marginBottom=0;whiteSpace=wrap;html=1;" vertex="1" parent="1">
          <mxGeometry x="690" y="610" width="160" height="60" as="geometry" />
        </mxCell>
        <mxCell id="vZsCT-HpAoaQenZftZ2v-82" value="" style="line;strokeWidth=1;fillColor=none;align=left;verticalAlign=middle;spacingTop=-1;spacingLeft=3;spacingRight=3;rotatable=0;labelPosition=right;points=[];portConstraint=eastwest;strokeColor=inherit;" vertex="1" parent="vZsCT-HpAoaQenZftZ2v-80">
          <mxGeometry y="26" width="160" height="8" as="geometry" />
        </mxCell>
        <mxCell id="vZsCT-HpAoaQenZftZ2v-83" value="update(balldetsils)" style="text;strokeColor=none;fillColor=none;align=left;verticalAlign=top;spacingLeft=4;spacingRight=4;overflow=hidden;rotatable=0;points=[[0,0.5],[1,0.5]];portConstraint=eastwest;whiteSpace=wrap;html=1;" vertex="1" parent="vZsCT-HpAoaQenZftZ2v-80">
          <mxGeometry y="34" width="160" height="26" as="geometry" />
        </mxCell>
        <mxCell id="vZsCT-HpAoaQenZftZ2v-85" style="edgeStyle=orthogonalEdgeStyle;rounded=0;orthogonalLoop=1;jettySize=auto;html=1;entryX=0.444;entryY=-0.083;entryDx=0;entryDy=0;entryPerimeter=0;" edge="1" parent="1" source="vZsCT-HpAoaQenZftZ2v-75" target="vZsCT-HpAoaQenZftZ2v-80">
          <mxGeometry relative="1" as="geometry" />
        </mxCell>
        <mxCell id="vZsCT-HpAoaQenZftZ2v-86" style="edgeStyle=orthogonalEdgeStyle;rounded=0;orthogonalLoop=1;jettySize=auto;html=1;entryX=0;entryY=0.5;entryDx=0;entryDy=0;" edge="1" parent="1" source="vZsCT-HpAoaQenZftZ2v-70" target="vZsCT-HpAoaQenZftZ2v-75">
          <mxGeometry relative="1" as="geometry" />
        </mxCell>
      </root>
    </mxGraphModel>
  </diagram>
</mxfile>
